<mxfile host="app.diagrams.net" agent="Mozilla/5.0 (Windows NT 10.0; Win64; x64) AppleWebKit/537.36 (KHTML, like Gecko) Chrome/131.0.0.0 Safari/537.36" version="24.9.0">
  <diagram id="6a731a19-8d31-9384-78a2-239565b7b9f0" name="Page-1">
    <mxGraphModel dx="127" dy="977" grid="1" gridSize="10" guides="1" tooltips="1" connect="1" arrows="1" fold="1" page="1" pageScale="1" pageWidth="1169" pageHeight="827" background="none" math="0" shadow="0">
      <root>
        <mxCell id="0" />
        <mxCell id="1" parent="0" />
        <mxCell id="2" value="Початок" style="shape=mxgraph.flowchart.terminator;strokeWidth=2;gradientColor=none;gradientDirection=north;fontStyle=0;html=1;" parent="1" vertex="1">
          <mxGeometry x="261" width="120" height="30" as="geometry" />
        </mxCell>
        <mxCell id="3" value="Ввести N" style="shape=mxgraph.flowchart.data;strokeWidth=2;gradientColor=none;gradientDirection=north;fontStyle=0;html=1;" parent="1" vertex="1">
          <mxGeometry x="239.5" y="80" width="159" height="80" as="geometry" />
        </mxCell>
        <mxCell id="rRB2SQGnYlKhNFA50HHl-84" style="edgeStyle=none;curved=1;rounded=0;orthogonalLoop=1;jettySize=auto;html=1;exitX=0.5;exitY=1;exitDx=0;exitDy=0;exitPerimeter=0;entryX=0.5;entryY=0;entryDx=0;entryDy=0;fontSize=12;startSize=8;endSize=8;" edge="1" parent="1" source="6" target="rRB2SQGnYlKhNFA50HHl-56">
          <mxGeometry relative="1" as="geometry" />
        </mxCell>
        <mxCell id="6" value="N &amp;gt; 0 ?" style="shape=mxgraph.flowchart.decision;strokeWidth=2;gradientColor=none;gradientDirection=north;fontStyle=0;html=1;" parent="1" vertex="1">
          <mxGeometry x="270" y="210" width="98" height="57" as="geometry" />
        </mxCell>
        <mxCell id="7" style="fontStyle=1;strokeColor=#003366;strokeWidth=1;html=1;" parent="1" source="2" target="3" edge="1">
          <mxGeometry relative="1" as="geometry" />
        </mxCell>
        <mxCell id="9" style="entryX=0.5;entryY=0;entryPerimeter=0;fontStyle=1;strokeColor=#003366;strokeWidth=1;html=1;exitX=0.5;exitY=1;exitDx=0;exitDy=0;exitPerimeter=0;" parent="1" source="3" target="6" edge="1">
          <mxGeometry relative="1" as="geometry">
            <mxPoint x="320" y="190" as="sourcePoint" />
          </mxGeometry>
        </mxCell>
        <mxCell id="10" value="" style="edgeStyle=elbowEdgeStyle;elbow=horizontal;exitX=1;exitY=0.5;exitPerimeter=0;fontStyle=1;strokeColor=#003366;strokeWidth=1;html=1;entryX=0.905;entryY=0.5;entryDx=0;entryDy=0;entryPerimeter=0;" parent="1" source="6" target="3" edge="1">
          <mxGeometry x="381" y="28.5" width="100" height="100" as="geometry">
            <mxPoint x="750" y="447" as="sourcePoint" />
            <mxPoint x="510" y="340" as="targetPoint" />
            <Array as="points">
              <mxPoint x="440" y="180" />
              <mxPoint x="650" y="690" />
              <mxPoint x="545" y="400" />
            </Array>
          </mxGeometry>
        </mxCell>
        <mxCell id="11" value="ні" style="text;fontStyle=0;html=1;strokeColor=none;gradientColor=none;fillColor=none;strokeWidth=2;" parent="1" vertex="1">
          <mxGeometry x="375.5" y="210" width="40" height="26" as="geometry" />
        </mxCell>
        <mxCell id="14" value="так" style="text;fontStyle=0;html=1;strokeColor=none;gradientColor=none;fillColor=none;strokeWidth=2;align=center;" parent="1" vertex="1">
          <mxGeometry x="328" y="260" width="40" height="26" as="geometry" />
        </mxCell>
        <mxCell id="17" value="" style="edgeStyle=elbowEdgeStyle;elbow=horizontal;fontStyle=1;strokeColor=#003366;strokeWidth=1;html=1;exitX=0.444;exitY=0.995;exitDx=0;exitDy=0;exitPerimeter=0;" parent="1" source="rRB2SQGnYlKhNFA50HHl-63" edge="1">
          <mxGeometry width="100" height="100" as="geometry">
            <mxPoint x="321" y="710" as="sourcePoint" />
            <mxPoint x="320.7142857142858" y="760" as="targetPoint" />
          </mxGeometry>
        </mxCell>
        <mxCell id="rRB2SQGnYlKhNFA50HHl-99" style="edgeStyle=none;curved=1;rounded=0;orthogonalLoop=1;jettySize=auto;html=1;exitX=0.5;exitY=1;exitDx=0;exitDy=0;exitPerimeter=0;entryX=0.5;entryY=0;entryDx=0;entryDy=0;fontSize=12;startSize=8;endSize=8;" edge="1" parent="1" source="24" target="rRB2SQGnYlKhNFA50HHl-97">
          <mxGeometry relative="1" as="geometry" />
        </mxCell>
        <mxCell id="24" value="digit &amp;lt; 7" style="shape=mxgraph.flowchart.decision;strokeWidth=2;gradientColor=none;gradientDirection=north;fontStyle=0;html=1;" parent="1" vertex="1">
          <mxGeometry x="261" y="760" width="119" height="78.5" as="geometry" />
        </mxCell>
        <mxCell id="26" value="" style="edgeStyle=elbowEdgeStyle;elbow=horizontal;entryX=0;entryY=0.5;entryPerimeter=0;fontStyle=1;strokeColor=#003366;strokeWidth=1;html=1;" parent="1" source="rRB2SQGnYlKhNFA50HHl-73" target="6" edge="1">
          <mxGeometry width="100" height="100" as="geometry">
            <mxPoint y="100" as="sourcePoint" />
            <mxPoint x="100" as="targetPoint" />
            <Array as="points">
              <mxPoint x="160" y="850" />
            </Array>
          </mxGeometry>
        </mxCell>
        <mxCell id="40" value="Кінець" style="shape=mxgraph.flowchart.terminator;strokeWidth=2;gradientColor=none;gradientDirection=north;fontStyle=0;html=1;" parent="1" vertex="1">
          <mxGeometry x="261" y="1300" width="120" height="30" as="geometry" />
        </mxCell>
        <mxCell id="rRB2SQGnYlKhNFA50HHl-63" value="" style="rounded=0;whiteSpace=wrap;html=1;" vertex="1" parent="1">
          <mxGeometry x="266" y="630" width="120" height="60" as="geometry" />
        </mxCell>
        <mxCell id="rRB2SQGnYlKhNFA50HHl-64" value="digit = N % 10" style="text;strokeColor=none;fillColor=none;html=1;align=center;verticalAlign=middle;whiteSpace=wrap;rounded=0;fontSize=16;" vertex="1" parent="1">
          <mxGeometry x="271" y="652.5" width="109" height="15" as="geometry" />
        </mxCell>
        <mxCell id="rRB2SQGnYlKhNFA50HHl-67" value="так" style="text;fontStyle=0;html=1;strokeColor=none;gradientColor=none;fillColor=none;strokeWidth=2;align=center;" vertex="1" parent="1">
          <mxGeometry x="330" y="838.5" width="40" height="26" as="geometry" />
        </mxCell>
        <mxCell id="rRB2SQGnYlKhNFA50HHl-68" value="ні" style="text;fontStyle=0;html=1;strokeColor=none;gradientColor=none;fillColor=none;strokeWidth=2;" vertex="1" parent="1">
          <mxGeometry x="381.75" y="770" width="40" height="26" as="geometry" />
        </mxCell>
        <mxCell id="rRB2SQGnYlKhNFA50HHl-75" value="" style="edgeStyle=elbowEdgeStyle;elbow=horizontal;exitX=1;exitY=0.5;exitPerimeter=0;fontStyle=1;strokeColor=#003366;strokeWidth=1;html=1;entryX=0.905;entryY=0.5;entryDx=0;entryDy=0;entryPerimeter=0;exitDx=0;exitDy=0;" edge="1" parent="1" source="rRB2SQGnYlKhNFA50HHl-88" target="rRB2SQGnYlKhNFA50HHl-74">
          <mxGeometry width="100" height="100" as="geometry">
            <mxPoint x="370" y="526" as="sourcePoint" />
            <mxPoint x="372.976" y="798.7150000000001" as="targetPoint" />
            <Array as="points">
              <mxPoint x="532.75" y="666.75" />
            </Array>
          </mxGeometry>
        </mxCell>
        <mxCell id="rRB2SQGnYlKhNFA50HHl-102" value="" style="edgeStyle=none;curved=1;rounded=0;orthogonalLoop=1;jettySize=auto;html=1;fontSize=12;startSize=8;endSize=8;" edge="1" parent="1" source="rRB2SQGnYlKhNFA50HHl-74" target="40">
          <mxGeometry relative="1" as="geometry" />
        </mxCell>
        <mxCell id="rRB2SQGnYlKhNFA50HHl-74" value="Вивести sum" style="shape=mxgraph.flowchart.data;strokeWidth=2;gradientColor=none;gradientDirection=north;fontStyle=0;html=1;" vertex="1" parent="1">
          <mxGeometry x="241.5" y="1150" width="159" height="80" as="geometry" />
        </mxCell>
        <mxCell id="rRB2SQGnYlKhNFA50HHl-80" value="" style="group" vertex="1" connectable="0" parent="1">
          <mxGeometry x="261" y="360" width="120" height="60" as="geometry" />
        </mxCell>
        <mxCell id="rRB2SQGnYlKhNFA50HHl-56" value="" style="rounded=0;whiteSpace=wrap;html=1;" vertex="1" parent="rRB2SQGnYlKhNFA50HHl-80">
          <mxGeometry width="120" height="60" as="geometry" />
        </mxCell>
        <mxCell id="rRB2SQGnYlKhNFA50HHl-59" value="&amp;nbsp;sum = 0" style="text;strokeColor=none;fillColor=none;html=1;align=center;verticalAlign=middle;whiteSpace=wrap;rounded=0;fontSize=16;" vertex="1" parent="rRB2SQGnYlKhNFA50HHl-80">
          <mxGeometry x="19" y="15" width="80" height="30" as="geometry" />
        </mxCell>
        <mxCell id="rRB2SQGnYlKhNFA50HHl-88" value="N &amp;gt; 0 ?" style="shape=mxgraph.flowchart.decision;strokeWidth=2;gradientColor=none;gradientDirection=north;fontStyle=0;html=1;" vertex="1" parent="1">
          <mxGeometry x="272" y="500" width="98" height="57" as="geometry" />
        </mxCell>
        <mxCell id="rRB2SQGnYlKhNFA50HHl-89" value="ні" style="text;fontStyle=0;html=1;strokeColor=none;gradientColor=none;fillColor=none;strokeWidth=2;" vertex="1" parent="1">
          <mxGeometry x="378.25" y="500" width="40" height="26" as="geometry" />
        </mxCell>
        <mxCell id="rRB2SQGnYlKhNFA50HHl-90" value="так" style="text;fontStyle=0;html=1;strokeColor=none;gradientColor=none;fillColor=none;strokeWidth=2;align=center;" vertex="1" parent="1">
          <mxGeometry x="320" y="550" width="40" height="26" as="geometry" />
        </mxCell>
        <mxCell id="rRB2SQGnYlKhNFA50HHl-94" style="edgeStyle=none;curved=1;rounded=0;orthogonalLoop=1;jettySize=auto;html=1;exitX=0.5;exitY=1;exitDx=0;exitDy=0;entryX=0.5;entryY=0;entryDx=0;entryDy=0;entryPerimeter=0;fontSize=12;startSize=8;endSize=8;" edge="1" parent="1" source="rRB2SQGnYlKhNFA50HHl-56" target="rRB2SQGnYlKhNFA50HHl-88">
          <mxGeometry relative="1" as="geometry" />
        </mxCell>
        <mxCell id="rRB2SQGnYlKhNFA50HHl-95" style="edgeStyle=none;curved=1;rounded=0;orthogonalLoop=1;jettySize=auto;html=1;exitX=0.5;exitY=1;exitDx=0;exitDy=0;exitPerimeter=0;entryX=0.453;entryY=-0.019;entryDx=0;entryDy=0;entryPerimeter=0;fontSize=12;startSize=8;endSize=8;" edge="1" parent="1" source="rRB2SQGnYlKhNFA50HHl-88" target="rRB2SQGnYlKhNFA50HHl-63">
          <mxGeometry relative="1" as="geometry" />
        </mxCell>
        <mxCell id="rRB2SQGnYlKhNFA50HHl-96" value="" style="group" vertex="1" connectable="0" parent="1">
          <mxGeometry x="260.5" y="1040" width="120" height="60" as="geometry" />
        </mxCell>
        <mxCell id="rRB2SQGnYlKhNFA50HHl-69" value="" style="rounded=0;whiteSpace=wrap;html=1;" vertex="1" parent="rRB2SQGnYlKhNFA50HHl-96">
          <mxGeometry width="120" height="60" as="geometry" />
        </mxCell>
        <mxCell id="rRB2SQGnYlKhNFA50HHl-73" value="N = N / 10" style="text;strokeColor=none;fillColor=none;html=1;align=center;verticalAlign=middle;whiteSpace=wrap;rounded=0;fontSize=16;" vertex="1" parent="rRB2SQGnYlKhNFA50HHl-96">
          <mxGeometry x="6.5" y="22.5" width="109" height="15" as="geometry" />
        </mxCell>
        <mxCell id="rRB2SQGnYlKhNFA50HHl-97" value="" style="rounded=0;whiteSpace=wrap;html=1;" vertex="1" parent="1">
          <mxGeometry x="241.38" y="890" width="158.25" height="60" as="geometry" />
        </mxCell>
        <mxCell id="rRB2SQGnYlKhNFA50HHl-98" value="sum = sum + digit" style="text;strokeColor=none;fillColor=none;html=1;align=center;verticalAlign=middle;whiteSpace=wrap;rounded=0;fontSize=16;" vertex="1" parent="1">
          <mxGeometry x="249.12" y="905" width="139" height="30" as="geometry" />
        </mxCell>
        <mxCell id="rRB2SQGnYlKhNFA50HHl-100" style="edgeStyle=none;curved=1;rounded=0;orthogonalLoop=1;jettySize=auto;html=1;exitX=0.5;exitY=1;exitDx=0;exitDy=0;entryX=0.5;entryY=0;entryDx=0;entryDy=0;fontSize=12;startSize=8;endSize=8;" edge="1" parent="1" source="rRB2SQGnYlKhNFA50HHl-97" target="rRB2SQGnYlKhNFA50HHl-69">
          <mxGeometry relative="1" as="geometry" />
        </mxCell>
        <mxCell id="rRB2SQGnYlKhNFA50HHl-101" style="edgeStyle=none;curved=1;rounded=0;orthogonalLoop=1;jettySize=auto;html=1;exitX=0.5;exitY=1;exitDx=0;exitDy=0;fontSize=12;startSize=8;endSize=8;" edge="1" parent="1" source="rRB2SQGnYlKhNFA50HHl-69">
          <mxGeometry relative="1" as="geometry">
            <mxPoint x="321" y="1150" as="targetPoint" />
          </mxGeometry>
        </mxCell>
        <mxCell id="rRB2SQGnYlKhNFA50HHl-105" value="" style="edgeStyle=elbowEdgeStyle;elbow=horizontal;exitX=1;exitY=0.5;exitPerimeter=0;fontStyle=1;strokeColor=#003366;strokeWidth=1;html=1;entryX=1.002;entryY=0.558;entryDx=0;entryDy=0;entryPerimeter=0;exitDx=0;exitDy=0;" edge="1" parent="1" source="24" target="rRB2SQGnYlKhNFA50HHl-69">
          <mxGeometry width="100" height="100" as="geometry">
            <mxPoint x="400.5" y="796" as="sourcePoint" />
            <mxPoint x="415.5" y="1457" as="targetPoint" />
            <Array as="points">
              <mxPoint x="500" y="1110" />
            </Array>
          </mxGeometry>
        </mxCell>
      </root>
    </mxGraphModel>
  </diagram>
</mxfile>
